<?xml version="1.0" encoding="UTF-8" standalone="no"?>
<svg
   xmlns:dc="http://purl.org/dc/elements/1.1/"
   xmlns:cc="http://creativecommons.org/ns#"
   xmlns:rdf="http://www.w3.org/1999/02/22-rdf-syntax-ns#"
   xmlns:svg="http://www.w3.org/2000/svg"
   xmlns="http://www.w3.org/2000/svg"
   xmlns:sodipodi="http://sodipodi.sourceforge.net/DTD/sodipodi-0.dtd"
   xmlns:inkscape="http://www.inkscape.org/namespaces/inkscape"
   sodipodi:docname="stock-chart.svg"
   inkscape:version="1.0 (4035a4fb49, 2020-05-01)"
   id="svg8"
   version="1.1"
   viewBox="0 0 128 128"
   height="128mm"
   width="128mm">
  <defs
     id="defs2">
	

		
		
		
		
	</defs>
  <sodipodi:namedview
     inkscape:window-maximized="1"
     inkscape:window-y="-8"
     inkscape:window-x="1912"
     inkscape:window-height="1009"
     inkscape:window-width="1920"
     showgrid="false"
     inkscape:document-rotation="0"
     inkscape:current-layer="layer1"
     inkscape:document-units="mm"
     inkscape:cy="255.87707"
     inkscape:cx="190.93857"
     inkscape:zoom="1.979899"
     inkscape:pageshadow="2"
     inkscape:pageopacity="0.0"
     borderopacity="1.0"
     bordercolor="#666666"
     pagecolor="#ffffff"
     id="base" />
  <metadata
     id="metadata5">
    <rdf:RDF>
      <cc:Work
         rdf:about="">
        <dc:format>image/svg+xml</dc:format>
        <dc:type
           rdf:resource="http://purl.org/dc/dcmitype/StillImage" />
        <dc:title></dc:title>
      </cc:Work>
    </rdf:RDF>
  </metadata>
  <g
     id="layer1"
     inkscape:groupmode="layer"
     inkscape:label="Layer 1">
    <path
       style="stroke-width:1.19613"
       d="M 31.024185,72.908727 10.00192,92.772711 v 33.516199 c 0,0.94374 0.842297,1.70966 1.882929,1.70966 h 25.524973 c 1.039376,0 1.882928,-0.76592 1.882928,-1.70966 V 74.875977 l -5.887289,-1.96725 z"
       id="path914" />
    <path
       style="stroke-width:1.22893"
       d="M 83.018106,86.290846 H 57.493133 c -1.039376,0 -1.882928,0.808504 -1.882928,1.804696 v 38.098338 c 0,0.99619 0.843552,1.80469 1.882928,1.80469 h 25.524973 c 1.040632,0 1.882928,-0.8085 1.882928,-1.80469 V 88.095542 c 0,-0.996192 -0.842296,-1.804696 -1.882928,-1.804696 z"
       id="path916" />
    <path
       style="stroke-width:1.24602"
       d="m 127.69246,46.0259 c -0.97536,0.502158 -2.07373,0.768078 -3.17587,0.768078 -1.60175,0 -3.16458,-0.556578 -4.3935,-1.570788 l -4.63703,-3.819364 -16.776886,18.033139 v 66.707775 c 0,1.0241 0.843552,1.85526 1.882926,1.85526 h 25.52498 C 127.15771,128 128,127.16884 128,126.14474 V 45.836663 c -0.10544,0.06185 -0.19959,0.133579 -0.30754,0.189237 z"
       id="path918" />
    <path
       sodipodi:nodetypes="ccccccccccccccccccsccc"
       style="stroke-width:1.939;stroke-miterlimit:4;stroke-dasharray:none"
       d="m 67.637847,65.042603 c 4.081879,1.732729 7.011561,1.477261 9.935797,-1.315133 l 37.577816,-40.331288 8.63417,8.384201 c 0.44312,0.420161 1.06323,0.498762 1.57413,0.19436 0.5109,-0.305831 0.81092,-0.926068 0.75945,-1.582033 L 127.9357,4.737416 C 127.48872,1.8598426 126.41904,1.0120314 123.31939,1.1407381 L 98.624127,3.2327077 c -0.57492,0.058594 -1.06198,0.5059076 -1.23269,1.1304319 -0.059,0.2086512 -0.07783,0.4201605 -0.06151,0.6288117 0.03263,0.4201605 0.20963,0.8174552 0.50588,1.0989914 L 106.72127,14.868841 70.702385,52.979625 32.254786,37.662392 c -1.403409,-0.585938 -4.891603,-0.306558 -5.927213,0.916767 L 2.2531931,66.139988 c -1.942198,2.342561 -2.67673537,5.799759 -1.0776985,8.340992 0.7318314,0.801735 1.8711614,1.72576 4.4834067,1.588969 2.7235083,-0.142618 4.0040835,-1.471942 4.7447017,-2.346562 L 30.509518,50.830515 Z"
       id="path920" />
    <g
       transform="matrix(1.2552854,0,0,1.4291175,-1.9364205e-4,-8.8622937)"
       id="g926">
</g>
    <g
       transform="matrix(1.2552854,0,0,1.4291175,-1.9364205e-4,-8.8622937)"
       id="g928">
</g>
    <g
       transform="matrix(1.2552854,0,0,1.4291175,-1.9364205e-4,-8.8622937)"
       id="g930">
</g>
    <g
       transform="matrix(1.2552854,0,0,1.4291175,-1.9364205e-4,-8.8622937)"
       id="g932">
</g>
    <g
       transform="matrix(1.2552854,0,0,1.4291175,-1.9364205e-4,-8.8622937)"
       id="g934">
</g>
    <g
       transform="matrix(1.2552854,0,0,1.4291175,-1.9364205e-4,-8.8622937)"
       id="g936">
</g>
    <g
       transform="matrix(1.2552854,0,0,1.4291175,-1.9364205e-4,-8.8622937)"
       id="g938">
</g>
    <g
       transform="matrix(1.2552854,0,0,1.4291175,-1.9364205e-4,-8.8622937)"
       id="g940">
</g>
    <g
       transform="matrix(1.2552854,0,0,1.4291175,-1.9364205e-4,-8.8622937)"
       id="g942">
</g>
    <g
       transform="matrix(1.2552854,0,0,1.4291175,-1.9364205e-4,-8.8622937)"
       id="g944">
</g>
    <g
       transform="matrix(1.2552854,0,0,1.4291175,-1.9364205e-4,-8.8622937)"
       id="g946">
</g>
    <g
       transform="matrix(1.2552854,0,0,1.4291175,-1.9364205e-4,-8.8622937)"
       id="g948">
</g>
    <g
       transform="matrix(1.2552854,0,0,1.4291175,-1.9364205e-4,-8.8622937)"
       id="g950">
</g>
    <g
       transform="matrix(1.2552854,0,0,1.4291175,-1.9364205e-4,-8.8622937)"
       id="g952">
</g>
    <g
       transform="matrix(1.2552854,0,0,1.4291175,-1.9364205e-4,-8.8622937)"
       id="g954">
</g>
  </g>
</svg>
